<svg width="325" height="48" viewBox="0 0 325 48" fill="none" xmlns="http://www.w3.org/2000/svg">
<circle cx="24.5" cy="24" r="24" fill="#3572EF"/>
<path fill-rule="evenodd" clip-rule="evenodd" d="M24.5 0C11.2452 0 0.5 10.7452 0.5 24C0.5 37.2548 11.2452 48 24.5 48C37.7548 48 48.5 37.2548 48.5 24C48.5 10.7452 37.7548 0 24.5 0ZM30.5 12C30.5 8.68629 27.8137 6 24.5 6C21.1863 6 18.5 8.68629 18.5 12C18.5 15.3137 21.1863 18 24.5 18C27.8137 18 30.5 15.3137 30.5 12ZM12.5 18C9.18629 18 6.5 20.6863 6.5 24C6.5 27.3137 9.18629 30 12.5 30C15.8137 30 18.5 27.3137 18.5 24C18.5 20.6863 15.8137 18 12.5 18ZM36.5 18C33.1863 18 30.5 20.6863 30.5 24C30.5 27.3137 33.1863 30 36.5 30C39.8137 30 42.5 27.3137 42.5 24C42.5 20.6863 39.8137 18 36.5 18ZM24.5 30C27.8137 30 30.5 32.6863 30.5 36C30.5 39.3137 27.8137 42 24.5 42C21.1863 42 18.5 39.3137 18.5 36C18.5 32.6863 21.1863 30 24.5 30Z" fill="white"/>
<path d="M70.192 29.66H61.68L60.112 34H57.424L64.48 14.596H67.42L74.448 34H71.76L70.192 29.66ZM69.464 27.588L65.936 17.732L62.408 27.588H69.464ZM80.6312 20.756V29.8C80.6312 30.5467 80.7899 31.0787 81.1072 31.396C81.4245 31.6947 81.9752 31.844 82.7592 31.844H84.6352V34H82.3392C80.9205 34 79.8565 33.6733 79.1472 33.02C78.4379 32.3667 78.0832 31.2933 78.0832 29.8V20.756H76.0952V18.656H78.0832V14.792H80.6312V18.656H84.6352V20.756H80.6312ZM90.2704 13.28V34H87.7224V13.28H90.2704ZM93.661 26.272C93.661 24.704 93.9784 23.332 94.613 22.156C95.2477 20.9613 96.1157 20.0373 97.217 19.384C98.337 18.7307 99.5784 18.404 100.941 18.404C102.285 18.404 103.452 18.6933 104.441 19.272C105.43 19.8507 106.168 20.5787 106.653 21.456V18.656H109.229V34H106.653V31.144C106.149 32.04 105.393 32.7867 104.385 33.384C103.396 33.9627 102.238 34.252 100.913 34.252C99.5504 34.252 98.3184 33.916 97.217 33.244C96.1157 32.572 95.2477 31.6293 94.613 30.416C93.9784 29.2027 93.661 27.8213 93.661 26.272ZM106.653 26.3C106.653 25.1427 106.42 24.1347 105.953 23.276C105.486 22.4173 104.852 21.764 104.049 21.316C103.265 20.8493 102.397 20.616 101.445 20.616C100.493 20.616 99.625 20.84 98.841 21.288C98.057 21.736 97.4317 22.3893 96.965 23.248C96.4984 24.1067 96.265 25.1147 96.265 26.272C96.265 27.448 96.4984 28.4747 96.965 29.352C97.4317 30.2107 98.057 30.8733 98.841 31.34C99.625 31.788 100.493 32.012 101.445 32.012C102.397 32.012 103.265 31.788 104.049 31.34C104.852 30.8733 105.486 30.2107 105.953 29.352C106.42 28.4747 106.653 27.4573 106.653 26.3ZM118.967 34.252C117.791 34.252 116.736 34.056 115.803 33.664C114.87 33.2533 114.132 32.6933 113.591 31.984C113.05 31.256 112.751 30.4253 112.695 29.492H115.327C115.402 30.2573 115.756 30.8827 116.391 31.368C117.044 31.8533 117.894 32.096 118.939 32.096C119.91 32.096 120.675 31.8813 121.235 31.452C121.795 31.0227 122.075 30.4813 122.075 29.828C122.075 29.156 121.776 28.6613 121.179 28.344C120.582 28.008 119.658 27.6813 118.407 27.364C117.268 27.0653 116.335 26.7667 115.607 26.468C114.898 26.1507 114.282 25.6933 113.759 25.096C113.255 24.48 113.003 23.6773 113.003 22.688C113.003 21.904 113.236 21.1853 113.703 20.532C114.17 19.8787 114.832 19.3653 115.691 18.992C116.55 18.6 117.53 18.404 118.631 18.404C120.33 18.404 121.702 18.8333 122.747 19.692C123.792 20.5507 124.352 21.7267 124.427 23.22H121.879C121.823 22.4173 121.496 21.7733 120.899 21.288C120.32 20.8027 119.536 20.56 118.547 20.56C117.632 20.56 116.904 20.756 116.363 21.148C115.822 21.54 115.551 22.0533 115.551 22.688C115.551 23.192 115.71 23.612 116.027 23.948C116.363 24.2653 116.774 24.5267 117.259 24.732C117.763 24.9187 118.454 25.1333 119.331 25.376C120.432 25.6747 121.328 25.9733 122.019 26.272C122.71 26.552 123.298 26.9813 123.783 27.56C124.287 28.1387 124.548 28.8947 124.567 29.828C124.567 30.668 124.334 31.424 123.867 32.096C123.4 32.768 122.738 33.3 121.879 33.692C121.039 34.0653 120.068 34.252 118.967 34.252ZM155.425 14.624V34H152.877V19.552L146.437 34H144.645L138.177 19.524V34H135.629V14.624H138.373L145.541 30.64L152.709 14.624H155.425ZM158.794 26.272C158.794 24.704 159.111 23.332 159.746 22.156C160.381 20.9613 161.249 20.0373 162.35 19.384C163.47 18.7307 164.711 18.404 166.074 18.404C167.418 18.404 168.585 18.6933 169.574 19.272C170.563 19.8507 171.301 20.5787 171.786 21.456V18.656H174.362V34H171.786V31.144C171.282 32.04 170.526 32.7867 169.518 33.384C168.529 33.9627 167.371 34.252 166.046 34.252C164.683 34.252 163.451 33.916 162.35 33.244C161.249 32.572 160.381 31.6293 159.746 30.416C159.111 29.2027 158.794 27.8213 158.794 26.272ZM171.786 26.3C171.786 25.1427 171.553 24.1347 171.086 23.276C170.619 22.4173 169.985 21.764 169.182 21.316C168.398 20.8493 167.53 20.616 166.578 20.616C165.626 20.616 164.758 20.84 163.974 21.288C163.19 21.736 162.565 22.3893 162.098 23.248C161.631 24.1067 161.398 25.1147 161.398 26.272C161.398 27.448 161.631 28.4747 162.098 29.352C162.565 30.2107 163.19 30.8733 163.974 31.34C164.758 31.788 165.626 32.012 166.578 32.012C167.53 32.012 168.398 31.788 169.182 31.34C169.985 30.8733 170.619 30.2107 171.086 29.352C171.553 28.4747 171.786 27.4573 171.786 26.3ZM186.144 18.376C188.01 18.376 189.522 18.9453 190.68 20.084C191.837 21.204 192.416 22.828 192.416 24.956V34H189.896V25.32C189.896 23.7893 189.513 22.6227 188.748 21.82C187.982 20.9987 186.937 20.588 185.612 20.588C184.268 20.588 183.194 21.008 182.392 21.848C181.608 22.688 181.216 23.9107 181.216 25.516V34H178.668V18.656H181.216V20.84C181.72 20.056 182.401 19.4493 183.26 19.02C184.137 18.5907 185.098 18.376 186.144 18.376ZM195.626 26.272C195.626 24.704 195.943 23.332 196.578 22.156C197.213 20.9613 198.081 20.0373 199.182 19.384C200.302 18.7307 201.543 18.404 202.906 18.404C204.25 18.404 205.417 18.6933 206.406 19.272C207.395 19.8507 208.133 20.5787 208.618 21.456V18.656H211.194V34H208.618V31.144C208.114 32.04 207.358 32.7867 206.35 33.384C205.361 33.9627 204.203 34.252 202.878 34.252C201.515 34.252 200.283 33.916 199.182 33.244C198.081 32.572 197.213 31.6293 196.578 30.416C195.943 29.2027 195.626 27.8213 195.626 26.272ZM208.618 26.3C208.618 25.1427 208.385 24.1347 207.918 23.276C207.451 22.4173 206.817 21.764 206.014 21.316C205.23 20.8493 204.362 20.616 203.41 20.616C202.458 20.616 201.59 20.84 200.806 21.288C200.022 21.736 199.397 22.3893 198.93 23.248C198.463 24.1067 198.23 25.1147 198.23 26.272C198.23 27.448 198.463 28.4747 198.93 29.352C199.397 30.2107 200.022 30.8733 200.806 31.34C201.59 31.788 202.458 32.012 203.41 32.012C204.362 32.012 205.23 31.788 206.014 31.34C206.817 30.8733 207.451 30.2107 207.918 29.352C208.385 28.4747 208.618 27.4573 208.618 26.3ZM221.828 18.404C223.153 18.404 224.31 18.6933 225.3 19.272C226.308 19.8507 227.054 20.5787 227.54 21.456V18.656H230.116V34.336C230.116 35.736 229.817 36.9773 229.22 38.06C228.622 39.1613 227.764 40.02 226.644 40.636C225.542 41.252 224.254 41.56 222.78 41.56C220.764 41.56 219.084 41.084 217.74 40.132C216.396 39.18 215.602 37.8827 215.36 36.24H217.88C218.16 37.1733 218.738 37.92 219.616 38.48C220.493 39.0587 221.548 39.348 222.78 39.348C224.18 39.348 225.318 38.9093 226.196 38.032C227.092 37.1547 227.54 35.9227 227.54 34.336V31.116C227.036 32.012 226.289 32.7587 225.3 33.356C224.31 33.9533 223.153 34.252 221.828 34.252C220.465 34.252 219.224 33.916 218.104 33.244C217.002 32.572 216.134 31.6293 215.5 30.416C214.865 29.2027 214.548 27.8213 214.548 26.272C214.548 24.704 214.865 23.332 215.5 22.156C216.134 20.9613 217.002 20.0373 218.104 19.384C219.224 18.7307 220.465 18.404 221.828 18.404ZM227.54 26.3C227.54 25.1427 227.306 24.1347 226.84 23.276C226.373 22.4173 225.738 21.764 224.936 21.316C224.152 20.8493 223.284 20.616 222.332 20.616C221.38 20.616 220.512 20.84 219.728 21.288C218.944 21.736 218.318 22.3893 217.852 23.248C217.385 24.1067 217.152 25.1147 217.152 26.272C217.152 27.448 217.385 28.4747 217.852 29.352C218.318 30.2107 218.944 30.8733 219.728 31.34C220.512 31.788 221.38 32.012 222.332 32.012C223.284 32.012 224.152 31.788 224.936 31.34C225.738 30.8733 226.373 30.2107 226.84 29.352C227.306 28.4747 227.54 27.4573 227.54 26.3ZM248.422 25.74C248.422 26.2253 248.394 26.7387 248.338 27.28H236.074C236.167 28.792 236.68 29.9773 237.614 30.836C238.566 31.676 239.714 32.096 241.058 32.096C242.159 32.096 243.074 31.844 243.802 31.34C244.548 30.8173 245.071 30.1267 245.37 29.268H248.114C247.703 30.7427 246.882 31.9467 245.65 32.88C244.418 33.7947 242.887 34.252 241.058 34.252C239.602 34.252 238.295 33.9253 237.138 33.272C235.999 32.6187 235.103 31.6947 234.45 30.5C233.796 29.2867 233.47 27.8867 233.47 26.3C233.47 24.7133 233.787 23.3227 234.422 22.128C235.056 20.9333 235.943 20.0187 237.082 19.384C238.239 18.7307 239.564 18.404 241.058 18.404C242.514 18.404 243.802 18.7213 244.922 19.356C246.042 19.9907 246.9 20.868 247.498 21.988C248.114 23.0893 248.422 24.34 248.422 25.74ZM245.79 25.208C245.79 24.2373 245.575 23.4067 245.146 22.716C244.716 22.0067 244.128 21.4747 243.382 21.12C242.654 20.7467 241.842 20.56 240.946 20.56C239.658 20.56 238.556 20.9707 237.642 21.792C236.746 22.6133 236.232 23.752 236.102 25.208H245.79ZM270.237 18.376C271.432 18.376 272.496 18.628 273.429 19.132C274.362 19.6173 275.1 20.3547 275.641 21.344C276.182 22.3333 276.453 23.5373 276.453 24.956V34H273.933V25.32C273.933 23.7893 273.55 22.6227 272.785 21.82C272.038 20.9987 271.021 20.588 269.733 20.588C268.408 20.588 267.353 21.0173 266.569 21.876C265.785 22.716 265.393 23.9387 265.393 25.544V34H262.873V25.32C262.873 23.7893 262.49 22.6227 261.725 21.82C260.978 20.9987 259.961 20.588 258.673 20.588C257.348 20.588 256.293 21.0173 255.509 21.876C254.725 22.716 254.333 23.9387 254.333 25.544V34H251.785V18.656H254.333V20.868C254.837 20.0653 255.509 19.4493 256.349 19.02C257.208 18.5907 258.15 18.376 259.177 18.376C260.465 18.376 261.604 18.6653 262.593 19.244C263.582 19.8227 264.32 20.672 264.805 21.792C265.234 20.7093 265.944 19.8693 266.933 19.272C267.922 18.6747 269.024 18.376 270.237 18.376ZM294.633 25.74C294.633 26.2253 294.605 26.7387 294.549 27.28H282.285C282.378 28.792 282.891 29.9773 283.825 30.836C284.777 31.676 285.925 32.096 287.269 32.096C288.37 32.096 289.285 31.844 290.013 31.34C290.759 30.8173 291.282 30.1267 291.581 29.268H294.325C293.914 30.7427 293.093 31.9467 291.861 32.88C290.629 33.7947 289.098 34.252 287.269 34.252C285.813 34.252 284.506 33.9253 283.349 33.272C282.21 32.6187 281.314 31.6947 280.661 30.5C280.007 29.2867 279.681 27.8867 279.681 26.3C279.681 24.7133 279.998 23.3227 280.633 22.128C281.267 20.9333 282.154 20.0187 283.293 19.384C284.45 18.7307 285.775 18.404 287.269 18.404C288.725 18.404 290.013 18.7213 291.133 19.356C292.253 19.9907 293.111 20.868 293.709 21.988C294.325 23.0893 294.633 24.34 294.633 25.74ZM292.001 25.208C292.001 24.2373 291.786 23.4067 291.357 22.716C290.927 22.0067 290.339 21.4747 289.593 21.12C288.865 20.7467 288.053 20.56 287.157 20.56C285.869 20.56 284.767 20.9707 283.853 21.792C282.957 22.6133 282.443 23.752 282.313 25.208H292.001ZM305.472 18.376C307.339 18.376 308.851 18.9453 310.008 20.084C311.165 21.204 311.744 22.828 311.744 24.956V34H309.224V25.32C309.224 23.7893 308.841 22.6227 308.076 21.82C307.311 20.9987 306.265 20.588 304.94 20.588C303.596 20.588 302.523 21.008 301.72 21.848C300.936 22.688 300.544 23.9107 300.544 25.516V34H297.996V18.656H300.544V20.84C301.048 20.056 301.729 19.4493 302.588 19.02C303.465 18.5907 304.427 18.376 305.472 18.376ZM319.014 20.756V29.8C319.014 30.5467 319.173 31.0787 319.49 31.396C319.807 31.6947 320.358 31.844 321.142 31.844H323.018V34H320.722C319.303 34 318.239 33.6733 317.53 33.02C316.821 32.3667 316.466 31.2933 316.466 29.8V20.756H314.478V18.656H316.466V14.792H319.014V18.656H323.018V20.756H319.014Z" fill="white"/>
</svg>
