<svg width="233" height="32" viewBox="0 0 233 32" fill="none" xmlns="http://www.w3.org/2000/svg">
<circle cx="16.5" cy="16" r="16" fill="#3572EF"/>
<path fill-rule="evenodd" clip-rule="evenodd" d="M16.5 0C7.66344 0 0.5 7.16344 0.5 16C0.5 24.8366 7.66344 32 16.5 32C25.3366 32 32.5 24.8366 32.5 16C32.5 7.16344 25.3366 0 16.5 0ZM20.5 8C20.5 5.79086 18.7091 4 16.5 4C14.2909 4 12.5 5.79086 12.5 8C12.5 10.2091 14.2909 12 16.5 12C18.7091 12 20.5 10.2091 20.5 8ZM8.5 12C6.29086 12 4.5 13.7909 4.5 16C4.5 18.2091 6.29086 20 8.5 20C10.7091 20 12.5 18.2091 12.5 16C12.5 13.7909 10.7091 12 8.5 12ZM24.5 12C22.2909 12 20.5 13.7909 20.5 16C20.5 18.2091 22.2909 20 24.5 20C26.7091 20 28.5 18.2091 28.5 16C28.5 13.7909 26.7091 12 24.5 12ZM16.5 20C18.7091 20 20.5 21.7909 20.5 24C20.5 26.2091 18.7091 28 16.5 28C14.2909 28 12.5 26.2091 12.5 24C12.5 21.7909 14.2909 20 16.5 20Z" fill="white"/>
<path d="M50.28 19.9H44.2L43.08 23H41.16L46.2 9.14H48.3L53.32 23H51.4L50.28 19.9ZM49.76 18.42L47.24 11.38L44.72 18.42H49.76ZM57.7366 13.54V20C57.7366 20.5333 57.8499 20.9133 58.0766 21.14C58.3032 21.3533 58.6966 21.46 59.2566 21.46H60.5966V23H58.9566C57.9432 23 57.1832 22.7667 56.6766 22.3C56.1699 21.8333 55.9166 21.0667 55.9166 20V13.54H54.4966V12.04H55.9166V9.28H57.7366V12.04H60.5966V13.54H57.7366ZM64.6217 8.2V23H62.8017V8.2H64.6217ZM67.0436 17.48C67.0436 16.36 67.2703 15.38 67.7236 14.54C68.1769 13.6867 68.7969 13.0267 69.5836 12.56C70.3836 12.0933 71.2703 11.86 72.2436 11.86C73.2036 11.86 74.0369 12.0667 74.7436 12.48C75.4503 12.8933 75.9769 13.4133 76.3236 14.04V12.04H78.1636V23H76.3236V20.96C75.9636 21.6 75.4236 22.1333 74.7036 22.56C73.9969 22.9733 73.1703 23.18 72.2236 23.18C71.2503 23.18 70.3703 22.94 69.5836 22.46C68.7969 21.98 68.1769 21.3067 67.7236 20.44C67.2703 19.5733 67.0436 18.5867 67.0436 17.48ZM76.3236 17.5C76.3236 16.6733 76.1569 15.9533 75.8236 15.34C75.4903 14.7267 75.0369 14.26 74.4636 13.94C73.9036 13.6067 73.2836 13.44 72.6036 13.44C71.9236 13.44 71.3036 13.6 70.7436 13.92C70.1836 14.24 69.7369 14.7067 69.4036 15.32C69.0703 15.9333 68.9036 16.6533 68.9036 17.48C68.9036 18.32 69.0703 19.0533 69.4036 19.68C69.7369 20.2933 70.1836 20.7667 70.7436 21.1C71.3036 21.42 71.9236 21.58 72.6036 21.58C73.2836 21.58 73.9036 21.42 74.4636 21.1C75.0369 20.7667 75.4903 20.2933 75.8236 19.68C76.1569 19.0533 76.3236 18.3267 76.3236 17.5ZM85.1192 23.18C84.2792 23.18 83.5259 23.04 82.8592 22.76C82.1926 22.4667 81.6659 22.0667 81.2792 21.56C80.8926 21.04 80.6792 20.4467 80.6392 19.78H82.5192C82.5726 20.3267 82.8259 20.7733 83.2792 21.12C83.7459 21.4667 84.3526 21.64 85.0992 21.64C85.7926 21.64 86.3392 21.4867 86.7392 21.18C87.1392 20.8733 87.3392 20.4867 87.3392 20.02C87.3392 19.54 87.1259 19.1867 86.6992 18.96C86.2726 18.72 85.6126 18.4867 84.7192 18.26C83.9059 18.0467 83.2392 17.8333 82.7192 17.62C82.2126 17.3933 81.7726 17.0667 81.3992 16.64C81.0392 16.2 80.8592 15.6267 80.8592 14.92C80.8592 14.36 81.0259 13.8467 81.3592 13.38C81.6926 12.9133 82.1659 12.5467 82.7792 12.28C83.3926 12 84.0926 11.86 84.8792 11.86C86.0926 11.86 87.0726 12.1667 87.8192 12.78C88.5659 13.3933 88.9659 14.2333 89.0192 15.3H87.1992C87.1592 14.7267 86.9259 14.2667 86.4992 13.92C86.0859 13.5733 85.5259 13.4 84.8192 13.4C84.1659 13.4 83.6459 13.54 83.2592 13.82C82.8726 14.1 82.6792 14.4667 82.6792 14.92C82.6792 15.28 82.7926 15.58 83.0192 15.82C83.2592 16.0467 83.5526 16.2333 83.8992 16.38C84.2592 16.5133 84.7526 16.6667 85.3792 16.84C86.1659 17.0533 86.8059 17.2667 87.2992 17.48C87.7926 17.68 88.2126 17.9867 88.5592 18.4C88.9192 18.8133 89.1059 19.3533 89.1192 20.02C89.1192 20.62 88.9526 21.16 88.6192 21.64C88.2859 22.12 87.8126 22.5 87.1992 22.78C86.5992 23.0467 85.9059 23.18 85.1192 23.18ZM111.16 9.16V23H109.34V12.68L104.74 23H103.46L98.8405 12.66V23H97.0205V9.16H98.9805L104.1 20.6L109.22 9.16H111.16ZM113.567 17.48C113.567 16.36 113.794 15.38 114.247 14.54C114.7 13.6867 115.32 13.0267 116.107 12.56C116.907 12.0933 117.794 11.86 118.767 11.86C119.727 11.86 120.56 12.0667 121.267 12.48C121.974 12.8933 122.5 13.4133 122.847 14.04V12.04H124.687V23H122.847V20.96C122.487 21.6 121.947 22.1333 121.227 22.56C120.52 22.9733 119.694 23.18 118.747 23.18C117.774 23.18 116.894 22.94 116.107 22.46C115.32 21.98 114.7 21.3067 114.247 20.44C113.794 19.5733 113.567 18.5867 113.567 17.48ZM122.847 17.5C122.847 16.6733 122.68 15.9533 122.347 15.34C122.014 14.7267 121.56 14.26 120.987 13.94C120.427 13.6067 119.807 13.44 119.127 13.44C118.447 13.44 117.827 13.6 117.267 13.92C116.707 14.24 116.26 14.7067 115.927 15.32C115.594 15.9333 115.427 16.6533 115.427 17.48C115.427 18.32 115.594 19.0533 115.927 19.68C116.26 20.2933 116.707 20.7667 117.267 21.1C117.827 21.42 118.447 21.58 119.127 21.58C119.807 21.58 120.427 21.42 120.987 21.1C121.56 20.7667 122.014 20.2933 122.347 19.68C122.68 19.0533 122.847 18.3267 122.847 17.5ZM133.103 11.84C134.436 11.84 135.516 12.2467 136.343 13.06C137.169 13.86 137.583 15.02 137.583 16.54V23H135.783V16.8C135.783 15.7067 135.509 14.8733 134.963 14.3C134.416 13.7133 133.669 13.42 132.723 13.42C131.763 13.42 130.996 13.72 130.423 14.32C129.863 14.92 129.583 15.7933 129.583 16.94V23H127.763V12.04H129.583V13.6C129.943 13.04 130.429 12.6067 131.043 12.3C131.669 11.9933 132.356 11.84 133.103 11.84ZM139.876 17.48C139.876 16.36 140.102 15.38 140.556 14.54C141.009 13.6867 141.629 13.0267 142.416 12.56C143.216 12.0933 144.102 11.86 145.076 11.86C146.036 11.86 146.869 12.0667 147.576 12.48C148.282 12.8933 148.809 13.4133 149.156 14.04V12.04H150.996V23H149.156V20.96C148.796 21.6 148.256 22.1333 147.536 22.56C146.829 22.9733 146.002 23.18 145.056 23.18C144.082 23.18 143.202 22.94 142.416 22.46C141.629 21.98 141.009 21.3067 140.556 20.44C140.102 19.5733 139.876 18.5867 139.876 17.48ZM149.156 17.5C149.156 16.6733 148.989 15.9533 148.656 15.34C148.322 14.7267 147.869 14.26 147.296 13.94C146.736 13.6067 146.116 13.44 145.436 13.44C144.756 13.44 144.136 13.6 143.576 13.92C143.016 14.24 142.569 14.7067 142.236 15.32C141.902 15.9333 141.736 16.6533 141.736 17.48C141.736 18.32 141.902 19.0533 142.236 19.68C142.569 20.2933 143.016 20.7667 143.576 21.1C144.136 21.42 144.756 21.58 145.436 21.58C146.116 21.58 146.736 21.42 147.296 21.1C147.869 20.7667 148.322 20.2933 148.656 19.68C148.989 19.0533 149.156 18.3267 149.156 17.5ZM158.591 11.86C159.538 11.86 160.365 12.0667 161.071 12.48C161.791 12.8933 162.325 13.4133 162.671 14.04V12.04H164.511V23.24C164.511 24.24 164.298 25.1267 163.871 25.9C163.445 26.6867 162.831 27.3 162.031 27.74C161.245 28.18 160.325 28.4 159.271 28.4C157.831 28.4 156.631 28.06 155.671 27.38C154.711 26.7 154.145 25.7733 153.971 24.6H155.771C155.971 25.2667 156.385 25.8 157.011 26.2C157.638 26.6133 158.391 26.82 159.271 26.82C160.271 26.82 161.085 26.5067 161.711 25.88C162.351 25.2533 162.671 24.3733 162.671 23.24V20.94C162.311 21.58 161.778 22.1133 161.071 22.54C160.365 22.9667 159.538 23.18 158.591 23.18C157.618 23.18 156.731 22.94 155.931 22.46C155.145 21.98 154.525 21.3067 154.071 20.44C153.618 19.5733 153.391 18.5867 153.391 17.48C153.391 16.36 153.618 15.38 154.071 14.54C154.525 13.6867 155.145 13.0267 155.931 12.56C156.731 12.0933 157.618 11.86 158.591 11.86ZM162.671 17.5C162.671 16.6733 162.505 15.9533 162.171 15.34C161.838 14.7267 161.385 14.26 160.811 13.94C160.251 13.6067 159.631 13.44 158.951 13.44C158.271 13.44 157.651 13.6 157.091 13.92C156.531 14.24 156.085 14.7067 155.751 15.32C155.418 15.9333 155.251 16.6533 155.251 17.48C155.251 18.32 155.418 19.0533 155.751 19.68C156.085 20.2933 156.531 20.7667 157.091 21.1C157.651 21.42 158.271 21.58 158.951 21.58C159.631 21.58 160.251 21.42 160.811 21.1C161.385 20.7667 161.838 20.2933 162.171 19.68C162.505 19.0533 162.671 18.3267 162.671 17.5ZM177.587 17.1C177.587 17.4467 177.567 17.8133 177.527 18.2H168.767C168.834 19.28 169.2 20.1267 169.867 20.74C170.547 21.34 171.367 21.64 172.327 21.64C173.114 21.64 173.767 21.46 174.287 21.1C174.82 20.7267 175.194 20.2333 175.407 19.62H177.367C177.074 20.6733 176.487 21.5333 175.607 22.2C174.727 22.8533 173.634 23.18 172.327 23.18C171.287 23.18 170.354 22.9467 169.527 22.48C168.714 22.0133 168.074 21.3533 167.607 20.5C167.14 19.6333 166.907 18.6333 166.907 17.5C166.907 16.3667 167.134 15.3733 167.587 14.52C168.04 13.6667 168.674 13.0133 169.487 12.56C170.314 12.0933 171.26 11.86 172.327 11.86C173.367 11.86 174.287 12.0867 175.087 12.54C175.887 12.9933 176.5 13.62 176.927 14.42C177.367 15.2067 177.587 16.1 177.587 17.1ZM175.707 16.72C175.707 16.0267 175.554 15.4333 175.247 14.94C174.94 14.4333 174.52 14.0533 173.987 13.8C173.467 13.5333 172.887 13.4 172.247 13.4C171.327 13.4 170.54 13.6933 169.887 14.28C169.247 14.8667 168.88 15.68 168.787 16.72H175.707ZM193.169 11.84C194.023 11.84 194.783 12.02 195.449 12.38C196.116 12.7267 196.643 13.2533 197.029 13.96C197.416 14.6667 197.609 15.5267 197.609 16.54V23H195.809V16.8C195.809 15.7067 195.536 14.8733 194.989 14.3C194.456 13.7133 193.729 13.42 192.809 13.42C191.863 13.42 191.109 13.7267 190.549 14.34C189.989 14.94 189.709 15.8133 189.709 16.96V23H187.909V16.8C187.909 15.7067 187.636 14.8733 187.089 14.3C186.556 13.7133 185.829 13.42 184.909 13.42C183.963 13.42 183.209 13.7267 182.649 14.34C182.089 14.94 181.809 15.8133 181.809 16.96V23H179.989V12.04H181.809V13.62C182.169 13.0467 182.649 12.6067 183.249 12.3C183.863 11.9933 184.536 11.84 185.269 11.84C186.189 11.84 187.003 12.0467 187.709 12.46C188.416 12.8733 188.943 13.48 189.289 14.28C189.596 13.5067 190.103 12.9067 190.809 12.48C191.516 12.0533 192.303 11.84 193.169 11.84ZM210.595 17.1C210.595 17.4467 210.575 17.8133 210.535 18.2H201.775C201.841 19.28 202.208 20.1267 202.875 20.74C203.555 21.34 204.375 21.64 205.335 21.64C206.121 21.64 206.775 21.46 207.295 21.1C207.828 20.7267 208.201 20.2333 208.415 19.62H210.375C210.081 20.6733 209.495 21.5333 208.615 22.2C207.735 22.8533 206.641 23.18 205.335 23.18C204.295 23.18 203.361 22.9467 202.535 22.48C201.721 22.0133 201.081 21.3533 200.615 20.5C200.148 19.6333 199.915 18.6333 199.915 17.5C199.915 16.3667 200.141 15.3733 200.595 14.52C201.048 13.6667 201.681 13.0133 202.495 12.56C203.321 12.0933 204.268 11.86 205.335 11.86C206.375 11.86 207.295 12.0867 208.095 12.54C208.895 12.9933 209.508 13.62 209.935 14.42C210.375 15.2067 210.595 16.1 210.595 17.1ZM208.715 16.72C208.715 16.0267 208.561 15.4333 208.255 14.94C207.948 14.4333 207.528 14.0533 206.995 13.8C206.475 13.5333 205.895 13.4 205.255 13.4C204.335 13.4 203.548 13.6933 202.895 14.28C202.255 14.8667 201.888 15.68 201.795 16.72H208.715ZM218.337 11.84C219.67 11.84 220.75 12.2467 221.577 13.06C222.404 13.86 222.817 15.02 222.817 16.54V23H221.017V16.8C221.017 15.7067 220.744 14.8733 220.197 14.3C219.65 13.7133 218.904 13.42 217.957 13.42C216.997 13.42 216.23 13.72 215.657 14.32C215.097 14.92 214.817 15.7933 214.817 16.94V23H212.997V12.04H214.817V13.6C215.177 13.04 215.664 12.6067 216.277 12.3C216.904 11.9933 217.59 11.84 218.337 11.84ZM228.01 13.54V20C228.01 20.5333 228.123 20.9133 228.35 21.14C228.577 21.3533 228.97 21.46 229.53 21.46H230.87V23H229.23C228.217 23 227.457 22.7667 226.95 22.3C226.443 21.8333 226.19 21.0667 226.19 20V13.54H224.77V12.04H226.19V9.28H228.01V12.04H230.87V13.54H228.01Z" fill="white"/>
</svg>
